# xmcd
#
# Track frame offsets: 
#        150
#        16297
#        30447
#        46160
#        57169
#        73405
#        86595
#        100593
#        113753
#        129624
#        139774
#        153057
#        171584
#        181878
#
# Disc length: 2545 seconds
#
# Revision: 0
# Processed by: cddbd v1.5.2PL0 Copyright (c) Steve Scherf et al.
# Submitted via: ExactAudioCopy v0.99pb3
#
DISCID=b309ef0e
DTITLE=BLUES4U - In The Mood
DYEAR=2008
DGENRE=Blues
TTITLE0=Who's Been Living
TTITLE1=Sweet Lovin' Mama
TTITLE2=Tip On In
TTITLE3=No I.D.
TTITLE4=My House
TTITLE5=Nine Below Zero
TTITLE6=I'm Gone
TTITLE7=New Address
TTITLE8=Crack Up And Go
TTITLE9=Ninty Nine
TTITLE10=Come In The Mood
TTITLE11=Early In The Morning
TTITLE12=Best Of Friends
TTITLE13=Bye Bye Bird
EXTD=
EXTT0=
EXTT1=
EXTT2=
EXTT3=
EXTT4=
EXTT5=
EXTT6=
EXTT7=
EXTT8=
EXTT9=
EXTT10=
EXTT11=
EXTT12=
EXTT13=
PLAYORDER=
